<?xml version="1.0" standalone="no"?>
<!DOCTYPE svg PUBLIC "-//W3C//DTD SVG 20010904//EN"
 "http://www.w3.org/TR/2001/REC-SVG-20010904/DTD/svg10.dtd">
<svg version="1.0" xmlns="http://www.w3.org/2000/svg"
 width="1484.000000pt" height="1484.000000pt" viewBox="0 0 1484.000000 1484.000000"
 preserveAspectRatio="xMidYMid meet">
<metadata>
Created by potrace 1.11, written by Peter Selinger 2001-2013
</metadata>
<g transform="translate(0.000000,1484.000000) scale(0.100000,-0.100000)"
fill="#000000" stroke="none">
<path d="M6708 14833 c-10 -3 -18 -8 -19 -11 0 -4 -2 -173 -3 -377 -2 -203 -6
-388 -9 -410 -4 -22 -9 -62 -12 -90 -5 -46 -8 -67 -21 -135 -2 -14 -7 -41 -10
-60 -9 -56 -63 -280 -79 -331 -9 -25 -17 -54 -20 -65 -15 -70 -105 -318 -223
-614 -114 -285 -190 -511 -208 -620 -3 -14 -9 -38 -14 -55 -4 -16 -11 -46 -14
-65 -3 -19 -8 -46 -11 -60 -11 -58 -25 -137 -29 -170 -3 -19 -7 -55 -11 -80
-16 -119 -27 -298 -29 -467 -1 -67 -4 -124 -6 -126 -3 -2 -52 -14 -110 -26
-110 -25 -441 -115 -475 -131 -11 -5 -40 -16 -65 -24 -134 -44 -259 -92 -385
-147 -16 -7 -32 -13 -35 -14 -52 -15 -436 -209 -553 -279 -43 -25 -83 -46 -88
-46 -5 0 -9 -4 -9 -8 0 -5 -12 -14 -26 -21 -41 -18 -297 -190 -414 -276 -447
-332 -864 -748 -1177 -1174 -34 -47 -67 -91 -71 -97 -19 -23 -185 -273 -217
-326 -199 -336 -356 -663 -473 -983 -35 -95 -91 -259 -98 -290 -2 -5 -19 -66
-39 -135 -56 -194 -123 -517 -150 -720 -4 -25 -8 -56 -10 -70 -2 -14 -7 -58
-10 -99 -4 -41 -9 -83 -11 -94 -26 -136 -25 -852 1 -1060 2 -15 6 -60 10 -100
4 -40 9 -79 10 -88 2 -9 6 -40 10 -70 33 -272 135 -703 240 -1009 114 -337
306 -759 460 -1014 36 -59 65 -111 65 -115 0 -5 9 -16 20 -26 11 -10 20 -22
20 -27 0 -19 259 -389 353 -504 441 -539 898 -945 1447 -1286 102 -63 129 -79
275 -160 67 -38 312 -158 385 -190 19 -9 55 -25 80 -36 126 -56 364 -142 585
-212 32 -10 250 -69 275 -75 8 -2 58 -13 110 -25 52 -12 104 -23 115 -25 75
-15 259 -46 282 -49 34 -5 118 -16 153 -22 14 -2 57 -6 95 -9 39 -4 86 -8 105
-10 212 -23 854 -24 977 -1 10 2 54 7 98 10 44 4 91 9 105 11 14 2 45 7 70 10
63 9 83 12 190 30 52 9 109 19 125 22 70 11 400 86 524 119 149 39 461 140
531 171 25 11 101 44 170 73 298 127 610 307 865 498 608 457 1025 872 1400
1393 150 208 314 477 430 708 178 353 308 689 408 1056 20 72 38 141 40 155 3
14 10 43 15 65 6 22 13 51 16 65 3 14 7 36 10 50 5 22 19 96 31 162 5 26 21
133 30 193 4 22 8 51 10 64 3 14 7 52 10 85 4 34 8 72 10 86 4 28 14 165 20
285 6 118 6 447 0 545 -8 140 -16 242 -21 288 -11 107 -14 132 -24 200 -5 40
-12 94 -15 120 -3 26 -8 54 -11 63 -2 10 -7 30 -9 45 -6 38 -18 106 -30 162
-3 12 -7 32 -10 45 -2 12 -14 63 -26 113 l-21 90 35 55 c19 30 49 83 67 119
34 69 86 143 145 206 80 87 122 172 151 304 15 69 20 79 72 130 67 66 125 153
142 214 20 71 9 171 -26 240 -61 120 -162 215 -414 386 -96 66 -245 173 -330
238 l-155 118 -1 97 c-1 64 3 97 10 98 6 1 82 1 169 1 l157 -1 1 57 c0 31 1
108 1 170 l0 112 169 0 169 0 0 170 0 170 170 0 c155 0 170 2 170 18 1 40 1
513 0 585 l0 77 -892 0 -893 0 -50 48 c-27 26 -84 77 -125 112 -41 36 -80 70
-86 75 -6 6 -26 21 -44 35 -18 14 -38 30 -44 35 -6 6 -58 45 -116 88 -58 43
-112 84 -120 90 -20 16 -102 71 -115 77 -5 3 -40 25 -78 49 -64 41 -67 45 -62
75 13 69 15 114 30 616 10 324 15 424 25 475 5 28 12 64 15 80 3 17 7 41 10
55 3 14 8 39 11 55 3 17 12 64 20 105 9 41 18 84 20 95 2 11 6 31 9 45 6 30 9
42 28 150 22 121 32 192 42 301 4 53 47 185 79 247 8 15 38 59 66 97 71 95
102 164 105 234 1 32 4 62 8 68 11 17 -17 33 -49 27 -46 -8 -280 -127 -384
-195 -82 -54 -200 -140 -236 -174 -6 -5 -35 -30 -65 -55 -102 -84 -335 -325
-406 -421 -174 -232 -297 -510 -357 -803 -7 -31 -25 -126 -31 -161 -2 -16 -7
-40 -9 -51 -2 -12 -7 -39 -10 -60 -10 -58 -71 -279 -82 -292 -1 -2 -26 1 -56
7 -148 29 -201 35 -358 34 -130 0 -312 -9 -375 -18 -16 -2 -48 -7 -70 -10 -22
-2 -58 -9 -80 -15 -54 -13 -55 -13 -55 8 0 31 -106 308 -148 387 -9 16 -17 32
-17 35 -1 3 -38 79 -82 170 -45 91 -98 217 -118 280 -91 287 -158 487 -176
524 -10 22 -19 44 -19 48 0 9 -13 39 -92 207 -80 172 -241 437 -385 633 -81
111 -259 340 -299 385 -16 17 -87 100 -159 185 -182 215 -265 290 -307 281z"/>
</g>
</svg>
